<?xml version="1.0" standalone="no"?><!DOCTYPE svg PUBLIC "-//W3C//DTD SVG 1.1//EN" "http://www.w3.org/Graphics/SVG/1.1/DTD/svg11.dtd"><svg t="1489113599510" class="icon" style="" viewBox="0 0 1024 1024" version="1.1" xmlns="http://www.w3.org/2000/svg" p-id="2057" xmlns:xlink="http://www.w3.org/1999/xlink" width="200" height="200"><defs><style type="text/css"></style></defs><path d="M511.69659 161.471578c-277.290397 0-502.084163 350.226546-502.084163 350.226546s224.793766 350.2245 502.084163 350.2245c285.406239 7.367805 502.093373-350.2245 502.093373-350.2245S788.996197 161.471578 511.69659 161.471578L511.69659 161.471578zM510.981299 791.440363c-236.411361 0-428.139034-280.44832-428.139034-280.44832S274.569938 230.509954 510.981299 230.509954c236.446154 0 428.104241 280.483112 428.104241 280.483112S747.427452 791.440363 510.981299 791.440363L510.981299 791.440363zM508.758678 335.492984c-99.053993 0-179.315992 78.870302-179.315992 176.205141s80.261998 176.207188 179.315992 176.207188c99.016131 0 179.278129-78.872349 179.278129-176.207188S607.774809 335.492984 508.758678 335.492984L508.758678 335.492984zM508.758678 617.416911c-59.391668 0-107.58939-47.286979-107.58939-105.718787 0-58.361199 48.165999-105.72595 107.58939-105.72595 59.461253 0 107.552551 47.326888 107.552551 105.72595C616.310206 570.129932 568.219931 617.416911 508.758678 617.416911L508.758678 617.416911zM508.758678 617.416911" p-id="2058"></path></svg>